<?xml version="1.0" encoding="UTF-8"?>
<svg width="67px" height="84px" viewBox="0 0 67 84" version="1.1" xmlns="http://www.w3.org/2000/svg" xmlns:xlink="http://www.w3.org/1999/xlink">
    <!-- Generator: Sketch 51.3 (57544) - http://www.bohemiancoding.com/sketch -->
    <title>burning</title>
    <desc>Created with Sketch.</desc>
    <defs>
        <path d="M56.1965625,17.5964062 L56.1965625,17.6000391 C56.6250293,16.7651953 56.875,15.8935547 56.875,15 L56.875,11.25 C56.875,5.0390625 45.9609668,0 32.5,0 C19.0390332,0 8.125,5.0390625 8.125,11.25 C8.125,10.9423828 8.17260742,10.6420312 8.22415039,10.3417969 C3.18969727,12.3999609 0,15.4028906 0,18.75 L0,22.5 C0,25.9790625 3.42773437,29.0881641 8.8034375,31.1498437 C8.3749707,31.9849219 8.125,32.8564453 8.125,33.75 L8.125,37.5 C8.125,38.8183594 8.64081055,40.0744922 9.54535156,41.25 C8.64081055,42.4255078 8.125,43.6816406 8.125,45 L8.125,48.75 C8.125,54.9609375 19.0390332,60 32.5,60 C45.9609668,60 56.875,54.9609375 56.875,48.75 L56.875,45 C56.875,43.6596094 56.3393848,42.3815625 55.4111035,41.1914062 C55.4032324,41.1986719 55.3952344,41.2096875 55.3872363,41.2170703 C56.0696094,40.3235156 56.6052246,39.3933984 56.7758496,38.4082031 C61.8103027,36.3464062 65,33.3471094 65,30 L65,26.25 C65,22.7710547 61.5722656,19.6582031 56.1965625,17.5964062 Z M32.5,1.875 C45.6674512,1.875 54.84375,6.81515625 54.84375,11.25 C54.84375,15.6812109 45.6674512,20.625 32.5,20.625 C19.3325488,20.625 10.15625,15.6812109 10.15625,11.25 C10.15625,6.81515625 19.3325488,1.875 32.5,1.875 Z M2.03125,18.75 C2.03125,16.56 4.28073242,14.2565625 8.125,12.4768359 L8.125,15 C8.125,21.2109375 19.0390332,26.25 32.5,26.25 C34.5114453,26.25 36.4553516,26.1254297 38.3239746,25.9130859 C34.5986621,27.2350781 29.8657227,28.125 24.375,28.125 C11.2075488,28.125 2.03125,23.1812109 2.03125,18.75 Z M54.84375,45 C54.84375,49.4310937 45.6674512,54.375 32.5,54.375 C19.3325488,54.375 10.15625,49.4310937 10.15625,45 C10.15625,44.2639453 10.4975,43.516875 10.9775098,42.7770703 C10.9735742,42.7734375 10.9655762,42.7660547 10.9616406,42.7587891 C15.0519434,46.3219922 23.1610742,48.75 32.5,48.75 C41.8508594,48.75 49.9203809,46.3037109 54.0026855,42.733125 C53.99875,42.7367578 53.99875,42.7367578 53.9948145,42.7403906 C54.4946289,43.4912109 54.84375,44.2492969 54.84375,45 Z M46.4569727,40.9130859 C42.7275977,42.2388281 37.9946582,43.125 32.5,43.125 C19.3325488,43.125 10.15625,38.1810937 10.15625,33.75 C10.15625,33.1127344 10.3942871,32.4682031 10.7553418,31.8310547 C12.7469824,32.4499219 14.9487305,32.9370703 17.3014258,33.2629687 C20.3323047,37.8844922 29.62375,41.25 40.625,41.25 C42.6443164,41.25 44.5962207,41.1255469 46.4727148,40.9094531 C46.4687793,40.9094531 46.4648437,40.9130859 46.4569727,40.9130859 Z M40.625,35.625 C35.4120508,35.625 30.8654785,34.8339844 27.2234473,33.6217969 C38.6770312,32.9991797 47.7224414,28.7548828 48.6507227,23.4082031 C51.4158887,22.2766406 53.6298242,20.8666406 55.0539844,19.2626953 C55.0500488,19.2626953 55.0500488,19.2626953 55.0500488,19.2626953 C59.9694824,21.1083984 62.96875,23.7451172 62.96875,26.25 C62.96875,30.6810937 53.7924512,35.625 40.625,35.625 Z" id="path-1"></path>
    </defs>
    <g id="Project" stroke="none" stroke-width="1" fill="none" fill-rule="evenodd">
        <g id="Home-page" transform="translate(-966.000000, -1289.000000)" fill-rule="nonzero" stroke="#127AEA">
            <g id="Strengths" transform="translate(0.000000, 951.000000)">
                <g id="burning" transform="translate(967.000000, 339.000000)">
                    <g id="coins-money-stack" transform="translate(0.000000, 22.000000)">
                        <g id="Shape">
                            <use fill="#127AEA" xlink:href="#path-1"></use>
                            <use xlink:href="#path-1"></use>
                            <use xlink:href="#path-1"></use>
                            <use xlink:href="#path-1"></use>
                            <use xlink:href="#path-1"></use>
                            <use xlink:href="#path-1"></use>
                            <use xlink:href="#path-1"></use>
                        </g>
                    </g>
                    <g id="fire" transform="translate(18.000000, 0.000000)" fill="#127AEA">
                        <path d="M8.44541093,35 C6.14258889,30.1462407 6.9073264,28.5992682 9.34396616,27.1138565 C11.7806059,25.6284447 12.0935265,26.6025658 12.3383431,26.6025658 C12.5831597,26.6025658 14.329709,29.6574176 13.7202013,32.7954102 C16.4119344,29.760252 15.3648479,27.6151976 16.942047,26.2991626 C18.2969985,26.2991626 19.1689569,25.8372686 20.2561836,27.9620278 C21.6123159,30.6123073 23.0783049,29.8443503 20.4642049,35 C39.1028428,24.3178183 25.100428,8.33398646 22.6626565,6.53349783 C23.4752686,8.33392083 23.6293947,11.3818759 21.9878444,12.8610643 C19.2090389,2.18747949 12.3383431,0 12.3383431,0 C13.1509552,5.50443157 9.39277812,11.5234947 5.76877308,16.0210413 C5.64146838,13.8261461 5.506195,12.3115858 4.36673702,10.2111908 C4.11096148,14.198437 1.10274835,17.4486484 0.288127887,21.4436384 C-0.815309023,26.8537668 1.11466899,30.8150255 8.44541093,35 Z" id="Shape"></path>
                    </g>
                </g>
            </g>
        </g>
    </g>
</svg>