<?xml version="1.0" encoding="iso-8859-1"?>
<!-- Generator: Adobe Illustrator 19.0.0, SVG Export Plug-In . SVG Version: 6.00 Build 0)  -->
<svg version="1.1" id="Capa_1" xmlns="http://www.w3.org/2000/svg" xmlns:xlink="http://www.w3.org/1999/xlink" x="0px" y="0px"
	 viewBox="0 0 512 512" style="enable-background:new 0 0 512 512;" xml:space="preserve">
<g transform="matrix(1.25 0 0 -1.25 0 45)">
	<path style="fill:#DE2910;" d="M364.089-20.889H45.511C20.378-20.889,0-41.267,0-66.4v-204.8c0-25.133,20.378-45.511,45.511-45.511
		h318.578c25.133,0,45.511,20.378,45.511,45.511v204.8C409.6-41.267,389.222-20.889,364.089-20.889z"/>
	<g>
		<path style="fill:#FFDE02;" d="M79.644-88.599l10.57-30.379l32.154-0.671l-25.634-19.422l9.318-30.799l-26.407,18.374
			l-26.408-18.375l9.318,30.799L36.921-119.65l32.154,0.671L79.644-88.599z"/>
		<path style="fill:#FFDE02;" d="M147.911-49.65l3.868-7.828l8.635-1.252l-6.246-6.099l1.467-8.602l-7.725,4.062l-7.725-4.062
			l1.479,8.602l-6.258,6.099l8.647,1.252L147.911-49.65z"/>
		<path style="fill:#FFDE02;" d="M170.667-95.161l3.868-7.828l8.635-1.252l-6.246-6.099l1.467-8.602l-7.725,4.063l-7.725-4.062
			l1.479,8.602l-6.258,6.099l8.647,1.252L170.667-95.161z"/>
		<path style="fill:#FFDE02;" d="M170.667-140.672l3.868-7.828l8.635-1.252l-6.246-6.099l1.467-8.602l-7.725,4.063l-7.725-4.062
			l1.479,8.602l-6.258,6.099l8.647,1.252L170.667-140.672z"/>
		<path style="fill:#FFDE02;" d="M147.911-186.177l3.868-7.839l8.635-1.252l-6.246-6.087l1.467-8.613l-7.725,4.062l-7.725-4.062
			l1.479,8.613l-6.258,6.087l8.647,1.252L147.911-186.177z"/>
	</g>
</g>
<g>
</g>
<g>
</g>
<g>
</g>
<g>
</g>
<g>
</g>
<g>
</g>
<g>
</g>
<g>
</g>
<g>
</g>
<g>
</g>
<g>
</g>
<g>
</g>
<g>
</g>
<g>
</g>
<g>
</g>
</svg>
