<?xml version="1.0" encoding="UTF-8"?>
<svg width="81px" height="90px" viewBox="0 0 81 90" version="1.1" xmlns="http://www.w3.org/2000/svg" xmlns:xlink="http://www.w3.org/1999/xlink">
    <!-- Generator: Sketch 51.3 (57544) - http://www.bohemiancoding.com/sketch -->
    <title>code update</title>
    <desc>Created with Sketch.</desc>
    <defs></defs>
    <g id="Project" stroke="none" stroke-width="1" fill="none" fill-rule="evenodd">
        <g id="Home-page" transform="translate(-581.000000, -1288.000000)">
            <g id="Strengths" transform="translate(0.000000, 951.000000)">
                <g id="code-update" transform="translate(564.000000, 312.000000)">
                    <g id="strength" transform="translate(25.000000, 40.000000)"></g>
                    <g id="reload" transform="translate(65.000000, 66.000000) rotate(-143.000000) translate(-65.000000, -66.000000) translate(21.000000, 17.000000)" fill="#127AEA" fill-rule="nonzero" stroke="#FFFFFF">
                        <path d="M88,43.2954127 C88,19.4222215 68.2618095,0 44.0001945,0 C19.7385795,0 0,19.4222215 0,43.2954127 C0,44.7135444 1.16849621,45.863324 2.60971286,45.863324 C4.05092951,45.863324 5.21942572,44.713353 5.21942572,43.2954127 C5.21942572,41.7107167 5.31810316,40.1482738 5.50972939,38.6137209 C7.86248432,19.7727353 24.2268221,5.13601394 44,5.13601394 C65.3836557,5.13601394 82.7805743,22.2542739 82.7805743,43.2954127 C82.7805743,64.33636 65.3836557,81.45462 44,81.45462 L39.472296,81.45462 L45.9463914,74.3237663 C46.9067486,73.2662447 46.8135724,71.6427337 45.738836,70.6977592 C44.6640996,69.7527847 43.0139658,69.8446599 42.0538031,70.9021814 L32.7992042,81.0955412 C31.2842636,82.7642241 31.2842636,85.2808384 32.7992042,86.9495214 L42.0538031,97.1428811 C42.5694821,97.710976 43.2835739,98 44.0009726,98 C44.6197484,98 45.2410531,97.7844761 45.738836,97.3473034 C46.8137669,96.4023289 46.9067486,94.7788179 45.9463914,93.7212963 L39.472296,86.5904426 L44,86.5904426 C68.2618095,86.5904426 88,67.168221 88,43.2954127 Z" id="Shape"></path>
                    </g>
                    <text id="&lt;/&gt;" font-family="ProximaNova-Black, Proxima Nova" font-size="40" font-weight="700" line-spacing="32" fill="#127AEA">
                        <tspan x="34.7046958" y="92.2981694">&lt;/&gt;</tspan>
                    </text>
                </g>
            </g>
        </g>
    </g>
</svg>