<?xml version="1.0" encoding="utf-8"?>
<!-- Generator: Adobe Illustrator 22.1.0, SVG Export Plug-In . SVG Version: 6.00 Build 0)  -->
<svg version="1.1" id="Capa_1" xmlns="http://www.w3.org/2000/svg" xmlns:xlink="http://www.w3.org/1999/xlink" x="0px" y="0px"
	 viewBox="0 0 512 512" style="enable-background:new 0 0 512 512;" xml:space="preserve">
<g>
	<path d="M442.7,150.2L442.7,150.2c3.4-7.1,5.3-14.5,5.3-22.2V96c0-53-86-96-192-96S64,43,64,96c0-2.6,0.4-5.2,0.8-7.8
		C25.1,105.8,0,131.4,0,160v32c0,29.7,27,56.2,69.3,73.8l0,0C66,272.9,64,280.4,64,288v32c0,11.2,4.1,22,11.2,32
		C68.1,362,64,372.7,64,384v32c0,53,86,96,192,96s192-43,192-96v-32c0-11.4-4.2-22.3-11.5-32.5c-0.1,0.1-0.1,0.2-0.2,0.2
		c5.4-7.6,9.6-15.6,10.9-24c39.7-17.6,64.8-43.2,64.8-71.7v-32C512,194.3,485,167.7,442.7,150.2z M256,16c103.7,0,176,42.2,176,80
		c0,37.8-72.3,80-176,80S80,133.8,80,96C80,58.2,152.3,16,256,16z M16,160c0-18.7,17.7-38.3,48-53.5V128c0,53,86,96,192,96
		c15.8,0,31.2-1.1,45.9-2.9C272.5,232.4,235.2,240,192,240C88.3,240,16,197.8,16,160z M432,384c0,37.8-72.3,80-176,80
		S80,421.8,80,384c0-6.3,2.7-12.7,6.5-19c0,0-0.1-0.1-0.1-0.2C118.6,395.3,182.4,416,256,416c73.7,0,137.2-20.9,169.4-51.3
		c0,0,0,0-0.1,0.1C429.2,371.1,432,377.6,432,384z M365.9,349.1C336.6,360.4,299.3,368,256,368c-103.7,0-176-42.2-176-80
		c0-5.4,1.9-10.9,4.7-16.4c15.7,5.3,33,9.4,51.6,12.2C160.2,323.3,233.3,352,320,352c15.9,0,31.3-1.1,46.1-2.9
		C366,349.1,366,349.1,365.9,349.1z M320,304c-41.1,0-76.9-6.8-105.6-17.1c90.2-5.3,161.5-41.5,168.8-87.2
		c21.8-9.7,39.2-21.7,50.4-35.4c0,0,0,0,0,0c38.8,15.8,62.4,38.2,62.4,59.6C496,261.8,423.7,304,320,304z"/>
</g>
</svg>
