<svg id="Layer_1" data-name="Layer 1" xmlns="http://www.w3.org/2000/svg" width="60" height="60" viewBox="0 0 60 60"><defs><style>.cls-1{fill:#fff;}.cls-2{fill:#ffc118;}</style></defs><title>4</title><path class="cls-1" d="M30,0h0A30,30,0,0,1,60,30h0A30,30,0,0,1,30,60h0A30,30,0,0,1,0,30H0A30,30,0,0,1,30,0Z"/><path class="cls-2" d="M45.78,23.77c-.11,0-.21-.11-.32-.11l-.32-2.85,3.17-.53a.37.37,0,0,0,.11.21A39.71,39.71,0,0,1,45.78,23.77ZM40.61,21a1,1,0,0,0-.63-.63l.21-3.69,3.48.42a.79.79,0,0,0,.53.74h.11c.11,0,.11,0,.21.11h.11l.21,2.22L40.61,21Zm-.32-6.12,3.27,2-3.38-.42.11-1.58Zm-.42-.84-2.74-1.58,2.11-.11A1.12,1.12,0,0,0,40,13C39.87,13,39.87,14.06,39.87,14.06Zm-.11,2.22-3-.42a1,1,0,0,0-2,0,.89.89,0,0,0,.21.74l-1.37,1.69-1.37-.63a.88.88,0,0,0-.21-.84,1.46,1.46,0,0,0-.42-.32h0a1.25,1.25,0,0,0-1.06.11,1.46,1.46,0,0,0-.32.42h0a1.16,1.16,0,0,0,0,.84l-.95.63-2.74-4.64.11-.11h0a.8.8,0,0,0,.21-.42l9.5-.63,3.38,1.9Zm-.32,4.12c-.21,0-.42.21-.63.32L34,18.49l1.37-1.58a1,1,0,0,0,1.37-.53l3,.42Zm-8,.42a1.8,1.8,0,0,0-.74-.11l-1.16-1.9.95-.63c.11.11.11.11.21.11h0a1,1,0,0,0,1.06-.11L32,18l1.27.63ZM20.87,24.19,20.66,24l1.16-5.17a1,1,0,0,0,.95-.74h0v-.42h0a.8.8,0,0,0-.21-.42l2.85-3.38a1.8,1.8,0,0,0,.74.11l2.74,4.64-8,5.59ZM20.24,24h-.11a.55.55,0,0,0-.42.21h0a1,1,0,0,0-.32,1.27L15.7,28.63l-1.9-2.22c0-.11.11-.21.11-.32h0V26h0a.79.79,0,0,0-.11-.53h0c0-.11-.11-.21-.21-.32h-.11l3.17-5.81,4.12-.84a1.27,1.27,0,0,0,.53.53C21.4,18.81,20.24,24,20.24,24Zm.21,11.72h0l1.27,4.12-3-1.37a1.06,1.06,0,0,0-1.58-1.06,1,1,0,0,0,.53,1.79l.74,3.17h-.11c-.11,0-.11.11-.21.21l-3.91-2.32A1,1,0,0,0,13.48,39l-.11-5.17,6.12.95V35h0c0,.11.11.21.11.32v.11a.91.91,0,0,0,.63.32Zm2.32,7.81-2.85-.21c0-.32-.21-.53-.53-.74h0a.37.37,0,0,1-.21-.11h-.32l-.74-3.17c.11-.11.32-.21.42-.32l3.38,1.48ZM27.63,43l-.95.84-3.38-.21-.84-2.85Zm.42.11,1.9.84-2.64-.21C27.31,43.83,28,43.09,28,43.09Zm3.17-2.74A1,1,0,0,0,32.69,40l3.27.84-4.12,2.74c-.11-.11-.21-.11-.32-.21s-.11-.11-.21-.11h-.53a2.31,2.31,0,0,0-.53.32l-2-.84C28.36,42.77,31.21,40.34,31.21,40.34Zm5.28.74,7.07,2L32.16,44v-.11l4.33-2.85Zm5.91-3.69a1,1,0,0,0,.74.32l1.27,4.64c-.11,0-.11.11-.21.11h0c-.11.11-.11.21-.21.21l-6.86-1.9C37,40.77,42.4,37.39,42.4,37.39Zm1.16.11a.23.23,0,0,0,.21-.21h0l3.8,2.22a.83.83,0,0,0,.11.84l-2.32,2.11h0a.39.39,0,0,0-.32-.11h-.32l-1.16-4.86Zm-5.38,8.44a.39.39,0,0,0,.11.32l-5.59,3.59a1,1,0,0,0-1.48.11L25,46.68v-.53c0-.11,0-.11-.11-.21l2-1.69,3.38.21v.11h0a1.08,1.08,0,0,0,.53.63c.11,0,.11,0,.21.11h.53c.11,0,.21-.11.32-.11h0c.11-.11.32-.21.32-.42S38.18,45.94,38.18,45.94Zm-13.72-.32a1.5,1.5,0,0,0-.63-.21l-.42-1.48,2.74.21ZM15.91,29l3.69-3.17c.11,0,.11.11.21.11H20l.21,7.81h0c-.11,0-.11,0-.21.11C20,33.8,15.91,29,15.91,29Zm-2.64,2.22,2.32-2,4.12,4.86h0c-.11.11-.11.11-.11.21l-6.23-.95C13.38,33.48,13.27,31.27,13.27,31.27Zm-.11-4.43h.21L15.28,29l-2,1.79C13.27,30.74,13.16,26.83,13.16,26.83Zm0-2h0l-.21-4a1,1,0,0,0,.74-.95l2.43-.53-3,5.49Zm5.91-9.92a1,1,0,0,0,1.27-.84l4.54-.63c0,.11.11.21.11.32l-2.85,3.38c-.11,0-.21-.11-.32-.11H21.4a1.12,1.12,0,0,0-.84.95l-3.48.74ZM30.47,10l.11.11h0a1,1,0,0,0,1.27-.21l3.8,2.22-8.87.63v-.11h0ZM11.69,33.17c0-.11-.11-.32-.11-.42l1.27-1.06v1.69C13,33.38,11.69,33.17,11.69,33.17ZM50.32,20a1,1,0,0,0-2,0l-3.06.42L45,18.18a1.49,1.49,0,0,0,.63-.74h0a1,1,0,0,0-.42-1.06h-.11c-.11,0-.11,0-.21-.11h0a.85.85,0,0,0-.95.32h0L40.4,14.48l.11-1.27A1,1,0,0,0,41,11.53a1.09,1.09,0,0,0-1.79.53l-2.74.21L32.16,9.73a1.49,1.49,0,0,0-.11-.95c-.11-.11-.21-.21-.32-.21h0a1.14,1.14,0,0,0-1.16,0l-.32.32h0a1,1,0,0,0-.11.95l-3.59,2.43h0a1,1,0,0,0-.74-.21.39.39,0,0,0-.32.11h-.11l-.11.11a.91.91,0,0,0-.32.63l-4.64.63a1,1,0,0,0-1.06-.63,1,1,0,0,0-.53,1.79l-2.22,4.22-2.74.63c-.95-1.79-3.17,1.06-1.16,1.37l.11,4c-.32.11-.53.21-.63.53a.37.37,0,0,0-.11.21h0v.11h0V26a.87.87,0,0,0,.42.63.33.33,0,0,0,.21.11h0c.11,0,.11,0,.21.11v4.33l-1.58,1.37c-.11-.11-.32-.11-.42-.21a1.14,1.14,0,0,0-.84.21h0c-.11.21-.32.42-.32.63a1.14,1.14,0,0,0,.21.84h0a1,1,0,0,0,1.69-.32l1.27.21L13,39.18c-.63,0-.84.84-.74,1.27s.84.74,1.16.63a.9.9,0,0,0,.53-.32l4,2.32a.9.9,0,0,0,0,.74v.11h0a1.46,1.46,0,0,1,.42.32h0a.93.93,0,0,0,.74.11h.11c.32,0,.53-.42.63-.63l3.06.21.42,1.58h0a1,1,0,0,0,0,1.79,1.12,1.12,0,0,0,1.27-.21l6.23,3.27c-.42,1.69,2.53,1.58,2-.11l5.59-3.59a.81.81,0,0,0,.53.21,1.57,1.57,0,0,0,.74-.11h0a.87.87,0,0,0,.42-.63h0a.93.93,0,0,0-.11-.74h0a.87.87,0,0,0-.63-.42h0a1.06,1.06,0,0,0-1.16.53l-5.49-1.16,11.08-.95a1.19,1.19,0,0,0,1.16.74H45a.55.55,0,0,0,.42-.21h0c.11-.11.21-.32.32-.42h0V43h0a.37.37,0,0,0-.11-.21L48,40.66c.74.42,1.79-.11,1.58-.95a1,1,0,0,0-1.79-.53L44,37v-.53c0-.53-.84-.84-1.27-.74h0c-.21,0-.53.32-.63.42h0A1.12,1.12,0,0,0,42,37l-5.7,3.69L32.9,39.6a1.27,1.27,0,0,0-.74-1.06h0A1,1,0,0,0,31,40l-3,2.53-5.7-2.43-1.27-4.54c.32-.11.42-.42.53-.74a1,1,0,0,0-.84-1.16l-.21-7.81h0c.11,0,.11,0,.21-.11h0a.23.23,0,0,0,.21-.21h0a2.31,2.31,0,0,0,.32-.53h0a1.34,1.34,0,0,0-.11-.63l8-5.49,1.06,1.9c-1.06.95.63,2.43,1.48,1.37a1,1,0,0,0,0-1.27l1.9-2.22,5,2.32v.11h0v.32a1,1,0,0,0,1.16.84,1.15,1.15,0,0,0,.84-.84h0v-.11l4.12-.63L45,23.56a1,1,0,0,0-.21,1.79c.63.42,1.79-.11,1.58-.95a.81.81,0,0,0-.21-.53l2.64-3.17h0A.94.94,0,0,0,50.32,20Z"/></svg>