<svg id="Layer_1" data-name="Layer 1" xmlns="http://www.w3.org/2000/svg" width="60" height="60" viewBox="0 0 60 60"><defs><style>.cls-1{fill:#2d92ff;}.cls-2{fill:#fff;}</style></defs><title>Untitled-2</title><rect class="cls-1" width="60" height="60" rx="30" ry="30"/><polygon class="cls-2" points="30.01 23.29 12.39 23.29 10.82 21.58 12.39 19.88 30.01 19.88 28.44 21.58 30.01 23.29"/><polygon class="cls-2" points="24.28 39.77 6.66 39.77 5.09 38.06 6.66 36.36 24.28 36.36 22.71 38.06 24.28 39.77"/><polygon class="cls-2" points="8.54 28.12 19.31 28.12 20.88 29.82 19.31 31.53 8.54 31.53 10.11 29.82 8.54 28.12"/><polygon class="cls-2" points="28.37 38.96 35.01 20.77 37.15 19.88 38.22 21.93 31.58 40.12 30.51 38.06 28.37 38.96"/><polygon class="cls-2" points="45.07 38.96 51.7 20.77 53.84 19.88 54.91 21.93 48.27 40.12 47.21 38.06 45.07 38.96"/><polygon class="cls-2" points="43.99 28.76 40.3 38.88 38.16 39.77 37.1 37.71 40.78 27.59 41.85 29.65 43.99 28.76"/></svg>