<svg id="Layer_1" data-name="Layer 1" xmlns="http://www.w3.org/2000/svg" width="60" height="60" viewBox="0 0 60 60"><defs><style>.cls-1{fill:#fff;}.cls-2{fill:#56b9e4;}.cls-3{fill:#79cdf0;}.cls-4{fill:#55bbe4;}.cls-5{fill:#35ade7;}.cls-6{fill:#0473aa;}.cls-7{fill:#025272;}.cls-8{fill:#0272a6;}.cls-9{fill:#009ee0;}.cls-10{fill:#038cbd;}.cls-11{fill:#038bbc;}.cls-12{fill:#119dc9;}.cls-13{fill:#64c9f6;}.cls-14{fill:#006a88;}.cls-15{fill:#06a0e2;}.cls-16{fill:#7acef6;}.cls-17{fill:#0072a0;}.cls-18{fill:#45b9fe;}</style></defs><title>1</title><rect class="cls-1" width="60" height="60" rx="30" ry="30"/><path class="cls-2" d="M8.82,27.81c.17-.07,15-9.34,15-9.34s-1.62,7.65-1.75,7.65S8.82,27.81,8.82,27.81Z" transform="translate(0 0)"/><polygon class="cls-3" points="35.04 19.72 22.1 26.12 23.85 18.47 35.04 19.72"/><polygon class="cls-4" points="31.33 26.12 22.1 26.12 35.04 19.72 31.33 26.12"/><polygon class="cls-5" points="18.56 33.61 8.82 27.81 22.1 26.12 18.56 33.61"/><polygon class="cls-6" points="27.69 50.02 26.75 33.91 18.56 33.61 27.69 50.02"/><polygon class="cls-7" points="30.99 35.97 27.69 50.02 26.75 33.91 30.99 35.97"/><polygon class="cls-8" points="26.75 33.91 31.33 26.12 30.99 35.97 26.75 33.91"/><polygon class="cls-9" points="22.1 26.12 26.75 33.91 18.56 33.61 22.1 26.12"/><polygon class="cls-10" points="22.1 26.12 26.75 33.91 31.33 26.12 22.1 26.12"/><polygon class="cls-3" points="36.15 17.8 40.23 23.14 31.33 26.12 36.15 17.8"/><polygon class="cls-11" points="39.51 44.45 31.33 26.12 39.51 28 39.51 44.45"/><polygon class="cls-12" points="40.23 23.14 39.51 28 31.33 26.12 40.23 23.14"/><polygon class="cls-13" points="40.84 15.36 40.23 23.14 36.15 17.8 40.84 15.36"/><polygon class="cls-14" points="30.99 35.97 39.51 44.45 31.33 26.12 30.99 35.97"/><polygon class="cls-3" points="40.84 15.36 47.4 14.9 40.23 23.14 40.84 15.36"/><polygon class="cls-15" points="47.4 14.9 50.59 15.07 43.2 19.72 47.4 14.9"/><polygon class="cls-16" points="51.18 9.98 50.59 15.07 47.4 14.9 51.18 9.98"/><polygon class="cls-13" points="40.23 23.14 44.54 29.86 39.51 28 40.23 23.14"/><polygon class="cls-17" points="43.69 39.44 45.98 40.74 39.51 44.45 43.69 39.44"/><polygon class="cls-18" points="39.51 28 43.69 39.44 46.34 39.44 39.51 28"/><polygon class="cls-13" points="44.06 30.39 40.97 30.44 46.34 39.44 44.06 30.39"/><polygon class="cls-12" points="39.51 28 43.69 39.44 39.51 44.45 39.51 28"/></svg>