<?xml version="1.0" encoding="UTF-8"?>
<svg width="84px" height="84px" viewBox="0 0 84 84" version="1.1" xmlns="http://www.w3.org/2000/svg" xmlns:xlink="http://www.w3.org/1999/xlink">
    <!-- Generator: Sketch 51.3 (57544) - http://www.bohemiancoding.com/sketch -->
    <title>javascript</title>
    <desc>Created with Sketch.</desc>
    <defs></defs>
    <g id="Project" stroke="none" stroke-width="1" fill="none" fill-rule="evenodd">
        <g id="Home-page" transform="translate(-402.000000, -1288.000000)" fill-rule="nonzero">
            <g id="Strengths" transform="translate(0.000000, 951.000000)">
                <g id="javascript" transform="translate(402.000000, 337.000000)">
                    <path d="M84,42 C84,47.4719766 82.9542656,52.6988437 81.0496641,57.4937344 C80.0313281,60.0583594 78.7678828,62.4994453 77.2867266,64.7863125 C75.4421719,67.6388672 73.2598125,70.2532031 70.7982187,72.5709141 C69.3564375,73.9303359 67.8204844,75.1868906 66.1987266,76.3320469 C59.3587969,81.1628672 51.0119531,84 42,84 C32.9880469,84 24.6412031,81.1628672 17.8011094,76.3320469 C15.7713281,74.8989609 13.8754219,73.292625 12.135375,71.5302656 C4.63197656,63.9445078 0,53.5114453 0,42 C0,30.4885547 4.63197656,20.0554922 12.135375,12.4697344 C13.9782891,10.6046719 15.9959297,8.91253125 18.1610625,7.41775781 C24.9325781,2.73935156 33.1457109,0 42,0 C50.8542891,0 59.0674219,2.73935156 65.8389375,7.41775781 C67.4931797,8.55782812 69.0601406,9.81602344 70.5291562,11.1788906 C73.1023125,13.5582891 75.3753984,16.2582656 77.2868906,19.2136875 C78.7680469,21.5005547 80.0314922,23.9416406 81.0498281,26.5062656 C82.9542656,31.3011562 84,36.5280234 84,42 Z" id="Shape" fill="#127AEA"></path>
                    <g id="Group" transform="translate(13.000000, 7.000000)">
                        <path d="M52.003436,30.8074347 C50.8384479,27.4206983 46.0614242,27.4206983 45.1295972,30.2234751 C44.1976066,33.0262518 47.3433199,34.6611093 52.2365972,36.2962945 C57.1298744,37.9313159 60.1591706,42.2524204 59.5765948,46.106095 C58.994019,49.9597696 57.362872,54.9816912 47.6928981,54.9816912 C41.6491848,54.9816912 38.2904218,51.1952138 36.6211777,48.3555606 L42.1004645,45.0550333 C42.1004645,45.0550333 43.964609,49.0257292 47.459737,49.0257292 C50.9550284,49.0257292 52.3530142,47.8579739 52.3530142,45.1718907 C52.3530142,41.9020119 41.0517299,40.7342565 39.3041659,35.1285392 C37.5566019,29.5228219 39.8867417,21.5815938 48.0421493,22.1653895 C53.1394834,22.5303848 56.0065806,25.0392969 57.4402109,26.8696817 L52.003436,30.8074347 Z" id="Shape" stroke="#127AEA" fill="#FBFCFD"></path>
                        <path d="M26.6048957,22.7495131 C26.6048957,22.7495131 26.6048957,42.4859715 26.6048957,45.1720546 C26.6048957,47.8579739 24.2747559,49.2596081 21.9446161,48.792342 C19.6144763,48.3252399 18.5659052,45.5224632 18.5659052,45.5224632 L13.2066327,49.1427506 C13.2066327,49.1427506 14.3716209,54.514753 21.7116185,54.982019 C29.0516161,55.4491211 33.245737,51.011323 33.245737,47.2741781 C33.245737,43.5370333 33.245737,22.7495131 33.245737,22.7495131 L26.6048957,22.7495131 Z" id="Shape" stroke="#127AEA" fill="#FBFCFD"></path>
                        <path d="M0.158274882,0.0349097387 L0.158274882,64.082152 C1.89243128,65.8427173 3.78191943,67.4472542 5.80482938,68.8790451 L54.0387725,68.8790451 C55.6550403,67.7350546 57.1857938,66.4797791 58.6226943,65.1217411 L3.90667536,65.1217411 L3.90667536,3.79221378 L65.0890735,3.79221378 L65.0890735,57.3450641 C66.5652156,55.0605249 67.8243839,52.621924 68.8392725,50.0599097 L68.8392725,0.0349097387 L0.158274882,0.0349097387 Z" id="Shape" fill="#FCFDFD"></path>
                    </g>
                    <circle id="Oval" fill="#FBFDFD" cx="14.5" cy="54.5" r="6.5"></circle>
                </g>
            </g>
        </g>
    </g>
</svg>