<svg xmlns="http://www.w3.org/2000/svg" xmlns:xlink="http://www.w3.org/1999/xlink" width="107" height="34" viewBox="0 0 107 34" preserveAspectRatio="none">
								<defs>
									<path id="a" d="M.014.159h55.171v33.163H.014z"></path>
								</defs>
								<g fill="none" fill-rule="evenodd">
									<path fill="#FFFFFE" d="M92.95 10.378v2.588h5.396V23.19h3.072V12.959h5.388v-2.58H92.95M39.625 10.287l-.372.04c-.63.076-1.267.114-1.89.235-1.311.252-2.282.95-2.695 2.275-.109.35-.183.716-.234 1.08-.222 1.613-.135 3.234-.115 4.852.005.47.082.943.164 1.407.259 1.45 1.1 2.38 2.542 2.715.573.132 1.164.242 1.75.255 1.825.045 3.652.055 5.479.041.938-.005 1.875-.086 2.788-.337 1.164-.323 1.98-1.015 2.283-2.212.122-.484.213-.988.232-1.485.045-1.182.039-2.366.05-3.549.001-.041-.012-.083-.02-.12h-7.801v2.49h4.641c0 .4.018.776-.004 1.15-.038.656-.274.96-.92 1.097a8.22 8.22 0 0 1-1.493.178c-1.168.03-2.337.03-3.505.02a12.326 12.326 0 0 1-1.569-.109c-.936-.131-1.389-.599-1.488-1.54a17.811 17.811 0 0 1 .01-3.852c.117-1.057.65-1.586 1.664-1.697.426-.046.855-.081 1.284-.081 2.943-.01 5.887-.01 8.83-.012h.263c-.148-1.042-.679-1.76-1.616-2.174-.865-.382-1.787-.503-2.717-.578-.441-.035-.884-.06-1.325-.09h-4.216M80.201 10.369c-.776.02-1.553.007-2.33.007H75.97v12.811h3.071v-9.566c.116.13.194.216.27.303 2.668 3.03 5.338 6.06 8.002 9.094a.488.488 0 0 0 .413.189c1.065-.008 2.13-.005 3.195-.005h.231v-12.81H88.07v8.758l-.193-.22c-2.368-2.762-4.737-5.524-7.098-8.292-.158-.184-.31-.27-.553-.27h-.025M63.192 10.57c-2.121 4.124-4.25 8.246-6.376 12.368-.039.076-.072.156-.118.253.058.005.092.011.126.011h.821c.822 0 1.642 0 2.463.005.146.001.189-.076.24-.177.548-1.06 1.1-2.12 1.647-3.182.428-.834.849-1.672 1.28-2.504.783-1.515 1.572-3.026 2.36-4.538.036-.07.076-.139.133-.24.065.116.109.192.15.271 1.284 2.509 2.57 5.017 3.853 7.526.452.886.901 1.775 1.345 2.666.064.13.133.178.281.178.985-.008 1.968-.005 2.952-.004h.443c-.043-.093-.07-.159-.102-.222-2.137-4.142-4.274-8.284-6.407-12.428-.074-.144-.155-.2-.32-.198-1.471.006-2.944.007-4.415 0l-.003-.001c-.179 0-.27.057-.353.216M52.148 23.186h3.037V10.385h-3.037z"></path>
									<g>
										<mask id="b" fill="#fff">
											<use xlink:href="#a"></use>
										</mask>
										<path fill="#FFFFFE" d="M52.148 23.186h3.037V10.385h-3.037zM7.46 12.76l6.906-3.988v.001l6.906 3.987 7.46-4.307-6.907-3.987-7.46-4.307L8.839 3.35l-1.378.797v-.001L0 8.453v6.567l7.46 4.313V12.76" mask="url(#b)"></path>
										<path fill="#FFFFFE" d="M15.56 17.429l5.712 3.301-6.906 3.996L0 16.416v8.625l14.366 8.295 14.362-8.296v-8.618l-5.708-3.299-7.46 4.306" mask="url(#b)"></path>
									</g>
								</g>
							</svg>
