<svg xmlns="http://www.w3.org/2000/svg" viewBox="0 0 669.584 177.899" preserveAspectRatio="none">
								<defs>
									<clipPath id="a">
										<path d="M0 1200h1200V0H0v1200z"></path>
									</clipPath>
									<clipPath id="b">
										<path d="M332.669 635.439v-28.168l32-18.505v65.15l-32-18.477z"></path>
									</clipPath>
									<linearGradient id="c" gradientTransform="matrix(32 0 0 -32 332.669 621.34)" gradientUnits="userSpaceOnUse" x2="1">
										<stop offset="0" stop-color="#1055b1"></stop>
										<stop offset="1" stop-color="#1477e5"></stop>
									</linearGradient>
									<clipPath id="d">
										<path d="M370.581 657.329l-5.912-3.418v-36.947l29.624 17.105.005-.003 31.995 18.474v.004l-32 18.476-23.712-13.691z"></path>
									</clipPath>
									<linearGradient id="e" gradientTransform="scale(73.91928 -73.91928) rotate(-31.539 -12.586 -12.529)" gradientUnits="userSpaceOnUse" x2="1">
										<stop offset="0" stop-color="#1055b1"></stop>
										<stop offset="1" stop-color="#1477e5"></stop>
									</linearGradient>
									<clipPath id="f">
										<path d="M394.293 634.069l29.626-17.105 32 18.475-29.626 17.101-32-18.471z"></path>
									</clipPath>
									<linearGradient id="g" gradientTransform="matrix(61.62598 0 0 -61.62598 394.293 634.752)" gradientUnits="userSpaceOnUse" x2="1">
										<stop offset="0" stop-color="#1055b1"></stop>
										<stop offset="1" stop-color="#1477e5"></stop>
									</linearGradient>
									<clipPath id="h">
										<path d="M362.343 547.148l31.95-18.447 61.61 35.583-31.984 18.489-61.576-35.625z"></path>
									</clipPath>
									<linearGradient id="i" gradientTransform="scale(-66.64872 66.64872) rotate(-39.063 9.057 13.876)" gradientUnits="userSpaceOnUse" x2="1">
										<stop offset="0" stop-color="#1055b1"></stop>
										<stop offset="1" stop-color="#1477e5"></stop>
									</linearGradient>
									<clipPath id="j">
										<path d="M332.669 564.28l29.674-17.132 31.951 18.485-61.625 35.644V564.28z"></path>
									</clipPath>
									<linearGradient id="k" gradientTransform="scale(-67.52638 67.52638) rotate(31.218 -17.323 -6.675)" gradientUnits="userSpaceOnUse" x2="1">
										<stop offset="0" stop-color="#1055b1"></stop>
										<stop offset="1" stop-color="#1477e5"></stop>
									</linearGradient>
									<clipPath id="l">
										<path d="M399.419 596.936l56.484-32.652v36.97l-24.484 14.152-32-18.47z"></path>
									</clipPath>
									<linearGradient id="m" gradientTransform="matrix(56.48438 0 0 -56.48438 399.419 589.846)" gradientUnits="userSpaceOnUse" x2="1">
										<stop offset="0" stop-color="#1055b1"></stop>
										<stop offset="1" stop-color="#1477e5"></stop>
									</linearGradient>
								</defs>
								<g clip-path="url(#a)" transform="matrix(1.25 0 0 -1.25 -415.836 838.775)" fill="#fff">
									<path d="M507.475 635.225c-.677-.074-1.356-.142-2.032-.224-3.45-.411-6.94-.621-10.348-1.28-7.182-1.383-12.497-5.2-14.758-12.46-.598-1.92-1.007-3.921-1.28-5.915-1.216-8.828-.74-17.703-.633-26.567.03-2.573.447-5.16.9-7.703 1.415-7.941 6.02-13.034 13.915-14.865 3.14-.727 6.376-1.328 9.585-1.4 9.994-.242 20-.297 30-.225 5.136.03 10.27.47 15.268 1.85 6.375 1.766 10.845 5.555 12.5 12.106.67 2.656 1.167 5.412 1.27 8.138.245 6.469.213 12.95.28 19.432.002.223-.074.453-.114.652h-42.717v-13.63h25.413c0-2.188.1-4.25-.023-6.303-.206-3.585-1.502-5.254-5.04-6.005a45.116 45.116 0 0 0-8.174-.975c-6.392-.158-12.796-.164-19.19-.104-2.868.032-5.756.197-8.59.593-5.128.72-7.607 3.28-8.152 8.434a97.555 97.555 0 0 0 .058 21.095c.643 5.786 3.56 8.683 9.112 9.289 2.333.252 4.682.446 7.031.448 16.114.053 32.231.05 48.35.065h1.436c-.81 5.704-3.714 9.636-8.845 11.902-4.738 2.09-9.784 2.753-14.879 3.166-2.416.193-4.839.327-7.255.486h-23.088zM725.914 633.999c-4.153-.107-8.315-.039-12.47-.039H703.26v-68.585h16.442v51.214c.62-.693 1.037-1.155 1.45-1.623 14.282-16.224 28.57-32.442 42.833-48.684.631-.715 1.243-1.024 2.21-1.012 5.703.044 11.405.025 17.103.025h1.238v68.582H768.04v-46.888c-.485.549-.764.864-1.036 1.18-12.677 14.785-25.358 29.57-37.996 44.385-.843.987-1.66 1.445-2.958 1.445h-.135M634.861 632.919c-11.357-22.077-22.75-44.143-34.133-66.211-.209-.406-.389-.833-.633-1.35.312-.03.495-.061.677-.061 1.465-.002 2.928 0 4.395 0 4.397.003 8.79.005 13.183-.026.784-.008 1.01.404 1.29.945 2.931 5.68 5.882 11.35 8.811 17.037 2.294 4.463 4.543 8.95 6.85 13.405 4.196 8.108 8.421 16.198 12.633 24.29.197.379.41.745.718 1.288.344-.624.58-1.031.797-1.453 6.88-13.43 13.76-26.854 20.627-40.29 2.423-4.742 4.826-9.5 7.201-14.27.346-.692.715-.955 1.508-.952 5.27.04 10.534.024 15.802.019h2.37c-.23.499-.375.85-.547 1.19-11.437 22.174-22.88 44.344-34.298 66.53-.395.775-.832 1.067-1.712 1.062-7.878-.034-15.759-.037-23.637 0-.01.005-.015.005-.015.005-.955 0-1.447-.304-1.887-1.158M794.16 633.947v-13.854h28.885v-54.73h16.447v54.77h28.844v13.814H794.16zM591.996 565.38h-16.259v68.531h16.259V565.38z"></path>
									<path d="M575.737 565.38h16.259v68.531h-16.259V565.38z"></path>
								</g>
								<g clip-path="url(#b)" transform="matrix(1.25 0 0 -1.25 -415.836 838.775)">
									<path d="M332.669 635.439v-28.168l32-18.505v65.15l-32-18.477z" fill="url(#c)"></path>
								</g>
								<g clip-path="url(#d)" transform="matrix(1.25 0 0 -1.25 -415.836 838.775)">
									<path d="M370.581 657.329l-5.912-3.418v-36.947l29.624 17.105.005-.003 31.995 18.474v.004l-32 18.476-23.712-13.691z" fill="url(#e)"></path>
								</g>
								<g clip-path="url(#f)" transform="matrix(1.25 0 0 -1.25 -415.836 838.775)">
									<path d="M394.293 634.069l29.626-17.105 32 18.475-29.626 17.101-32-18.471z" fill="url(#g)"></path>
								</g>
								<g clip-path="url(#h)" transform="matrix(1.25 0 0 -1.25 -415.836 838.775)">
									<path d="M362.343 547.148l31.95-18.447 61.61 35.583-31.984 18.489-61.576-35.625z" fill="url(#i)"></path>
								</g>
								<g clip-path="url(#j)" transform="matrix(1.25 0 0 -1.25 -415.836 838.775)">
									<path d="M332.669 564.28l29.674-17.132 31.951 18.485-61.625 35.644V564.28z" fill="url(#k)"></path>
								</g>
								<g clip-path="url(#l)" transform="matrix(1.25 0 0 -1.25 -415.836 838.775)">
									<path d="M399.419 596.936l56.484-32.652v36.97l-24.484 14.152-32-18.47z" fill="url(#m)"></path>
								</g>
							</svg>
