<?xml version="1.0" encoding="iso-8859-1"?>
<!-- Generator: Adobe Illustrator 19.0.0, SVG Export Plug-In . SVG Version: 6.00 Build 0)  -->
<svg version="1.1" id="Capa_1" xmlns="http://www.w3.org/2000/svg" xmlns:xlink="http://www.w3.org/1999/xlink" x="0px" y="0px"
	 viewBox="0 0 512 512" style="enable-background:new 0 0 512 512;" xml:space="preserve">
<g transform="matrix(1.25 0 0 -1.25 0 45)">
	<g>
		<g>
			<path style="fill:#006600;" d="M409.6-271.2c0-25.134-20.378-45.511-45.511-45.511H45.511C20.378-316.711,0-296.334,0-271.2
				v204.8c0,25.134,20.378,45.511,45.511,45.511h318.578c25.134,0,45.511-20.378,45.511-45.511V-271.2z"/>
			<path style="fill:#D52B1E;" d="M364.089-20.889H170.667v-295.822h193.422c25.134,0,45.511,20.378,45.511,45.511v204.8
				C409.6-41.266,389.222-20.889,364.089-20.889"/>
			<path style="fill:#FFCC4D;" d="M230.821-220.899l-33.371,33.371l-8.044-8.044l5.359-5.359l-4.494-6.736l27.034-18.022h-35.248
				v135.634c15.019-2.15,28.706-8.431,39.799-17.761l-30.231-10.069l3.607-10.798l34.133,11.378l-1.172,3.504
				c1.9-1.98,3.675-4.062,5.359-6.235l-31.903-21.276l3.163-4.722l-2.549-5.097l35.328-17.658l-35.328-17.67l5.086-10.183
				l42.644,21.322C248.57-192.693,241.596-208.474,230.821-220.899 M159.3-247.534c-10.672,1.536-20.639,5.154-29.503,10.468H159.3
				V-247.534z M91.352-175.319l42.644-21.322l5.086,10.183l-35.328,17.67l24.075,12.038l16.065-16.065l8.044,8.044l-13.38,13.38
				l0.523,0.262l-5.086,10.183l-3.925-1.957l-11.093,11.093l16.634-2.776l1.866,11.23l-28.604,4.767
				c12.334,15.167,30.151,25.623,50.426,28.535v-135.634h-35.26l27.034,18.022l-6.315,9.466l-34.133-22.756l0.159-0.228
				C99.863-208.713,92.786-192.841,91.352-175.319 M91.352-162.269c0.956,11.628,4.358,22.551,9.762,32.233l18.239-18.239
				L91.352-162.269L91.352-162.269z M182.056-237.067h29.491c-8.863-5.313-18.83-8.932-29.491-10.468V-237.067z M216.121-145.339
				l23.768,15.849c5.586-9.819,9.136-20.924,10.103-32.779L216.121-145.339L216.121-145.339z M170.678-77.778
				c-50.278,0-91.022-40.744-91.022-91.022c0-50.267,40.744-91.022,91.022-91.022c50.267,0,91.022,40.755,91.022,91.022
				C261.7-118.522,220.945-77.778,170.678-77.778"/>
			<path style="fill:#D52B1E;" d="M125.156-111.911v-79.644c0-25.134,20.378-45.511,45.511-45.511s45.511,20.378,45.511,45.511
				v79.644H125.156z"/>
			<path style="fill:#FFFFFF;" d="M136.533-123.289v-68.267c0-18.842,15.28-34.133,34.133-34.133s34.133,15.292,34.133,34.133
				v68.267H136.533z"/>
			<g>
				<path style="fill:#829ACD;" d="M193.422-180.178h-45.511v22.756h45.511V-180.178z"/>
				<path style="fill:#829ACD;" d="M182.044-191.556h-22.756v45.511h22.756V-191.556z"/>
			</g>
			<g>
				<path style="fill:#003399;" d="M147.911-180.178h-11.378v22.756h11.378V-180.178z"/>
				<path style="fill:#003399;" d="M182.044-180.178h-22.756v22.756h22.756V-180.178z"/>
				<path style="fill:#003399;" d="M204.8-180.178h-11.378v22.756H204.8V-180.178z"/>
				<path style="fill:#003399;" d="M182.044-214.311h-22.756v22.756h22.756V-214.311z"/>
				<path style="fill:#003399;" d="M182.044-123.289h-22.756v-22.756h22.756V-123.289z"/>
			</g>
		</g>
	</g>
</g>
<g>
</g>
<g>
</g>
<g>
</g>
<g>
</g>
<g>
</g>
<g>
</g>
<g>
</g>
<g>
</g>
<g>
</g>
<g>
</g>
<g>
</g>
<g>
</g>
<g>
</g>
<g>
</g>
<g>
</g>
</svg>
