<?xml version="1.0" encoding="UTF-8"?>
<svg width="83px" height="83px" viewBox="0 0 83 83" version="1.1" xmlns="http://www.w3.org/2000/svg" xmlns:xlink="http://www.w3.org/1999/xlink">
    <!-- Generator: Sketch 51.3 (57544) - http://www.bohemiancoding.com/sketch -->
    <title>self-gover</title>
    <desc>Created with Sketch.</desc>
    <defs></defs>
    <g id="Project" stroke="none" stroke-width="1" fill="none" fill-rule="evenodd">
        <g id="Home-page" transform="translate(-1136.000000, -1289.000000)" fill="#127AEA" fill-rule="nonzero">
            <g id="Strengths" transform="translate(0.000000, 951.000000)">
                <g id="self-gover" transform="translate(1136.000000, 338.000000)">
                    <circle id="Oval" cx="41.5" cy="17.5" r="3.5"></circle>
                    <path d="M79.7578125,76 L3.2421875,76 C1.45152734,76 0,77.56695 0,79.5 C0,81.43305 1.45152734,83 3.2421875,83 L79.7578125,83 C81.5484727,83 83,81.43305 83,79.5 C83,77.56695 81.5484727,76 79.7578125,76 Z" id="Shape"></path>
                    <path d="M83,20.1519557 C83,18.8772313 82.2448945,17.7222894 81.0733301,17.2049516 L42.7344629,0.277411452 C41.8948984,-0.0933822837 40.9371562,-0.0922537811 40.0985645,0.279507243 L1.92180664,17.2070474 C0.752998047,17.7253525 0,18.8791659 0,20.1519557 L0,28.6963331 C0,28.7235784 0.00340429687,28.7498563 0.00405273437,28.7769404 C0.00340429687,28.8040245 0,28.8303025 0,28.8575477 C0,30.638325 1.45152734,32.0818411 3.2421875,32.0818411 C5.14583789,32.0818411 5.99804687,33.7012424 5.99804687,35.3061345 L5.99804687,65.3752494 C5.99804687,65.4427984 6.00420703,65.5088964 6.00825977,65.575478 C6.00404492,65.6420597 5.99804687,65.7081577 5.99804687,65.7757066 C5.99804687,67.5564839 7.44957422,69 9.24023437,69 L74.0839844,69 C75.8746445,69 77.3261719,67.5564839 77.3261719,65.7757066 C77.3261719,63.9949294 75.8746445,62.5514133 74.0839844,62.5514133 L64.3574219,62.5514133 L64.3574219,35.3061345 C64.3574219,33.5282591 65.8118672,32.0818411 67.5996094,32.0818411 C69.3873516,32.0818411 70.8417969,33.5282591 70.8417969,35.3061345 L70.8417969,49.5763732 C70.8417969,51.3571504 72.2933242,52.8006665 74.0839844,52.8006665 C75.8746445,52.8006665 77.3261719,51.3571504 77.3261719,49.5763732 L77.3261719,35.3061345 C77.3261719,34.5497152 77.5015742,32.0818411 79.7578125,32.0818411 C81.5484727,32.0818411 83,30.638325 83,28.8575477 C83,28.8303025 82.9965957,28.8040245 82.9959473,28.7769404 C82.9965957,28.7498563 83,28.7235784 83,28.6963331 L83,20.1519557 Z M18.9667969,62.5514133 L12.4824219,62.5514133 L12.4824219,35.3061345 C12.4824219,33.5282591 13.9368672,32.0818411 15.7246094,32.0818411 C17.5123516,32.0818411 18.9667969,33.5282591 18.9667969,35.3061345 L18.9667969,62.5514133 Z M31.9355469,62.5514133 L25.4511719,62.5514133 L25.4511719,35.3061345 C25.4511719,33.5282591 26.9056172,32.0818411 28.6933594,32.0818411 C30.4811016,32.0818411 31.9355469,33.5282591 31.9355469,35.3061345 L31.9355469,62.5514133 Z M44.9042969,62.5514133 L38.4199219,62.5514133 L38.4199219,35.3061345 C38.4199219,33.5282591 39.8743672,32.0818411 41.6621094,32.0818411 C43.4498516,32.0818411 44.9042969,33.5282591 44.9042969,35.3061345 L44.9042969,62.5514133 Z M57.8730469,62.5514133 L51.3886719,62.5514133 L51.3886719,35.3061345 C51.3886719,33.5282591 52.8431172,32.0818411 54.6308594,32.0818411 C56.4186016,32.0818411 57.8730469,33.5282591 57.8730469,35.3061345 L57.8730469,62.5514133 Z M76.515625,25.4720397 L6.484375,25.4720397 L6.484375,22.2446833 L41.4218633,6.75340465 L76.515625,22.24823 L76.515625,25.4720397 Z" id="Shape"></path>
                </g>
            </g>
        </g>
    </g>
</svg>