<?xml version="1.0" encoding="iso-8859-1"?>
<!-- Generator: Adobe Illustrator 16.0.0, SVG Export Plug-In . SVG Version: 6.00 Build 0)  -->
<!DOCTYPE svg PUBLIC "-//W3C//DTD SVG 1.1//EN" "http://www.w3.org/Graphics/SVG/1.1/DTD/svg11.dtd">
<svg version="1.1" id="Capa_1" xmlns="http://www.w3.org/2000/svg" xmlns:xlink="http://www.w3.org/1999/xlink" x="0px" y="0px"
	 width="554.625px" height="554.625px" viewBox="0 0 554.625 554.625" style="enable-background:new 0 0 554.625 554.625;"
	 xml:space="preserve">
	 <style type="text/css">
	.st1{fill:#127aea;}
</style>
<g>
	<g>
		<rect class="st1" x="172.125" y="372.938" width="19.125" height="153"/>
		<path class="st1" d="M459,66.938c0-21.038-17.213-38.25-38.25-38.25H133.875c-21.038,0-38.25,17.212-38.25,38.25v114.75H459V66.938z"/>
		<rect class="st1" x="210.375" y="372.938" width="19.125" height="114.75"/>
		<rect class="st1" x="133.875" y="372.938" width="19.125" height="133.875"/>
		<rect class="st1" x="248.625" y="372.938" width="19.125" height="133.875"/>
		<rect class="st1" x="95.625" y="372.938" width="19.125" height="153"/>
		<rect class="st1" x="401.625" y="372.938" width="19.125" height="133.875"/>
		<rect class="st1" x="439.875" y="372.938" width="19.125" height="153"/>
		<path class="st1" d="M497.25,200.812H57.375C24.862,200.812,0,225.675,0,258.188v95.625c0,32.513,24.862,57.375,57.375,57.375H76.5v-57.375
			h401.625v57.375h19.125c32.513,0,57.375-24.862,57.375-57.375v-95.625C554.625,225.675,529.763,200.812,497.25,200.812z
			 M439.875,296.438c-11.475,0-19.125-7.65-19.125-19.125c0-11.475,7.65-19.125,19.125-19.125S459,265.837,459,277.312
			C459,288.787,451.35,296.438,439.875,296.438z"/>
		<rect class="st1" x="363.375" y="372.938" width="19.125" height="114.75"/>
		<rect class="st1" x="325.125" y="372.938" width="19.125" height="153"/>
		<rect class="st1" x="286.875" y="372.938" width="19.125" height="114.75"/>
	</g>
</g>
<g>
</g>
<g>
</g>
<g>
</g>
<g>
</g>
<g>
</g>
<g>
</g>
<g>
</g>
<g>
</g>
<g>
</g>
<g>
</g>
<g>
</g>
<g>
</g>
<g>
</g>
<g>
</g>
<g>
</g>
</svg>
